<mxfile host="app.diagrams.net" modified="2021-11-30T01:42:27.138Z" agent="5.0 (Macintosh; Intel Mac OS X 10_15_7) AppleWebKit/537.36 (KHTML, like Gecko) Chrome/96.0.4664.55 Safari/537.36" etag="ShuOk-W2g_4pQtugXh80" version="15.8.6" type="github" pages="4">
  <diagram id="VOGbYkKHU-DiDlwHHKmW" name="Page-1">
    <mxGraphModel dx="946" dy="589" grid="1" gridSize="10" guides="1" tooltips="1" connect="1" arrows="1" fold="1" page="1" pageScale="1" pageWidth="827" pageHeight="1169" math="0" shadow="0">
      <root>
        <mxCell id="0" />
        <mxCell id="1" parent="0" />
        <mxCell id="ywU977cZz2SzJeFmd415-1" value="浏览器" style="rounded=1;whiteSpace=wrap;html=1;" parent="1" vertex="1">
          <mxGeometry x="100" y="80" width="110" height="30" as="geometry" />
        </mxCell>
        <mxCell id="ywU977cZz2SzJeFmd415-2" value="浏览器缓存" style="rounded=1;whiteSpace=wrap;html=1;" parent="1" vertex="1">
          <mxGeometry x="340" y="80" width="110" height="30" as="geometry" />
        </mxCell>
        <mxCell id="ywU977cZz2SzJeFmd415-3" value="服务器" style="rounded=1;whiteSpace=wrap;html=1;" parent="1" vertex="1">
          <mxGeometry x="580" y="80" width="110" height="30" as="geometry" />
        </mxCell>
        <mxCell id="ywU977cZz2SzJeFmd415-4" value="" style="endArrow=none;dashed=1;html=1;dashPattern=1 3;strokeWidth=2;rounded=0;entryX=0.5;entryY=1;entryDx=0;entryDy=0;" parent="1" target="ywU977cZz2SzJeFmd415-1" edge="1">
          <mxGeometry width="50" height="50" relative="1" as="geometry">
            <mxPoint x="155" y="500" as="sourcePoint" />
            <mxPoint x="230" y="210" as="targetPoint" />
          </mxGeometry>
        </mxCell>
        <mxCell id="ywU977cZz2SzJeFmd415-5" value="" style="endArrow=none;dashed=1;html=1;dashPattern=1 3;strokeWidth=2;rounded=0;entryX=0.5;entryY=1;entryDx=0;entryDy=0;" parent="1" edge="1">
          <mxGeometry width="50" height="50" relative="1" as="geometry">
            <mxPoint x="394.5" y="500" as="sourcePoint" />
            <mxPoint x="394.5" y="110" as="targetPoint" />
          </mxGeometry>
        </mxCell>
        <mxCell id="ywU977cZz2SzJeFmd415-6" value="" style="endArrow=none;dashed=1;html=1;dashPattern=1 3;strokeWidth=2;rounded=0;entryX=0.5;entryY=1;entryDx=0;entryDy=0;" parent="1" edge="1">
          <mxGeometry width="50" height="50" relative="1" as="geometry">
            <mxPoint x="640" y="500" as="sourcePoint" />
            <mxPoint x="640" y="110" as="targetPoint" />
          </mxGeometry>
        </mxCell>
        <mxCell id="ywU977cZz2SzJeFmd415-7" value="" style="shape=flexArrow;endArrow=classic;html=1;rounded=0;" parent="1" edge="1">
          <mxGeometry width="50" height="50" relative="1" as="geometry">
            <mxPoint x="160" y="150" as="sourcePoint" />
            <mxPoint x="390" y="150" as="targetPoint" />
          </mxGeometry>
        </mxCell>
        <mxCell id="ywU977cZz2SzJeFmd415-8" value="发起 HTTP 请求&lt;br&gt;" style="edgeLabel;html=1;align=center;verticalAlign=middle;resizable=0;points=[];" parent="ywU977cZz2SzJeFmd415-7" vertex="1" connectable="0">
          <mxGeometry x="-0.16" y="-2" relative="1" as="geometry">
            <mxPoint x="13" y="-22" as="offset" />
          </mxGeometry>
        </mxCell>
        <mxCell id="ywU977cZz2SzJeFmd415-9" value="" style="shape=flexArrow;endArrow=classic;html=1;rounded=0;" parent="1" edge="1">
          <mxGeometry width="50" height="50" relative="1" as="geometry">
            <mxPoint x="390" y="214" as="sourcePoint" />
            <mxPoint x="160" y="214" as="targetPoint" />
          </mxGeometry>
        </mxCell>
        <mxCell id="ywU977cZz2SzJeFmd415-10" value="该请求的缓存结果失败，则只返回缓存标识" style="edgeLabel;html=1;align=center;verticalAlign=middle;resizable=0;points=[];" parent="ywU977cZz2SzJeFmd415-9" vertex="1" connectable="0">
          <mxGeometry x="-0.16" y="-2" relative="1" as="geometry">
            <mxPoint x="-13" y="-22" as="offset" />
          </mxGeometry>
        </mxCell>
        <mxCell id="ywU977cZz2SzJeFmd415-11" value="" style="shape=flexArrow;endArrow=classic;html=1;rounded=0;fillColor=default;" parent="1" edge="1">
          <mxGeometry width="50" height="50" relative="1" as="geometry">
            <mxPoint x="160" y="280" as="sourcePoint" />
            <mxPoint x="640" y="280" as="targetPoint" />
          </mxGeometry>
        </mxCell>
        <mxCell id="ywU977cZz2SzJeFmd415-12" value="携带该资源的缓存标识，发起 HTTP 请求" style="edgeLabel;html=1;align=center;verticalAlign=middle;resizable=0;points=[];" parent="ywU977cZz2SzJeFmd415-11" vertex="1" connectable="0">
          <mxGeometry x="-0.16" y="-2" relative="1" as="geometry">
            <mxPoint x="33" y="-22" as="offset" />
          </mxGeometry>
        </mxCell>
        <mxCell id="ywU977cZz2SzJeFmd415-13" value="" style="shape=flexArrow;endArrow=classic;html=1;rounded=0;fillColor=default;" parent="1" edge="1">
          <mxGeometry width="50" height="50" relative="1" as="geometry">
            <mxPoint x="632.5" y="350" as="sourcePoint" />
            <mxPoint x="157.5" y="350" as="targetPoint" />
          </mxGeometry>
        </mxCell>
        <mxCell id="ywU977cZz2SzJeFmd415-14" value="304，该资源无更新" style="edgeLabel;html=1;align=center;verticalAlign=middle;resizable=0;points=[];" parent="ywU977cZz2SzJeFmd415-13" vertex="1" connectable="0">
          <mxGeometry x="-0.16" y="-2" relative="1" as="geometry">
            <mxPoint x="-44" y="-18" as="offset" />
          </mxGeometry>
        </mxCell>
        <mxCell id="ywU977cZz2SzJeFmd415-15" value="" style="shape=flexArrow;endArrow=classic;html=1;rounded=0;" parent="1" edge="1">
          <mxGeometry width="50" height="50" relative="1" as="geometry">
            <mxPoint x="390" y="480" as="sourcePoint" />
            <mxPoint x="160" y="480" as="targetPoint" />
          </mxGeometry>
        </mxCell>
        <mxCell id="ywU977cZz2SzJeFmd415-16" value="返回该请求的缓存结果" style="edgeLabel;html=1;align=center;verticalAlign=middle;resizable=0;points=[];" parent="ywU977cZz2SzJeFmd415-15" vertex="1" connectable="0">
          <mxGeometry x="-0.16" y="-2" relative="1" as="geometry">
            <mxPoint x="-13" y="-22" as="offset" />
          </mxGeometry>
        </mxCell>
        <mxCell id="ywU977cZz2SzJeFmd415-17" value="" style="shape=flexArrow;endArrow=classic;html=1;rounded=0;" parent="1" edge="1">
          <mxGeometry width="50" height="50" relative="1" as="geometry">
            <mxPoint x="160" y="420" as="sourcePoint" />
            <mxPoint x="390" y="420" as="targetPoint" />
          </mxGeometry>
        </mxCell>
        <mxCell id="ywU977cZz2SzJeFmd415-18" value="获取该请求的缓存结果" style="edgeLabel;html=1;align=center;verticalAlign=middle;resizable=0;points=[];" parent="ywU977cZz2SzJeFmd415-17" vertex="1" connectable="0">
          <mxGeometry x="-0.16" y="-2" relative="1" as="geometry">
            <mxPoint x="23" y="-22" as="offset" />
          </mxGeometry>
        </mxCell>
      </root>
    </mxGraphModel>
  </diagram>
  <diagram id="gbalaxCxzEiLqOrjaJot" name="Page-2">
    <mxGraphModel dx="946" dy="589" grid="1" gridSize="10" guides="1" tooltips="1" connect="1" arrows="1" fold="1" page="1" pageScale="1" pageWidth="827" pageHeight="1169" math="0" shadow="0">
      <root>
        <mxCell id="f8hrx9o9_4M5Lu1DDIx_-0" />
        <mxCell id="f8hrx9o9_4M5Lu1DDIx_-1" parent="f8hrx9o9_4M5Lu1DDIx_-0" />
        <mxCell id="nqUVrthM-jkGZHSEEBIY-0" value="浏览器" style="rounded=1;whiteSpace=wrap;html=1;" vertex="1" parent="f8hrx9o9_4M5Lu1DDIx_-1">
          <mxGeometry x="100" y="80" width="110" height="30" as="geometry" />
        </mxCell>
        <mxCell id="nqUVrthM-jkGZHSEEBIY-1" value="浏览器缓存" style="rounded=1;whiteSpace=wrap;html=1;" vertex="1" parent="f8hrx9o9_4M5Lu1DDIx_-1">
          <mxGeometry x="340" y="80" width="110" height="30" as="geometry" />
        </mxCell>
        <mxCell id="nqUVrthM-jkGZHSEEBIY-2" value="服务器" style="rounded=1;whiteSpace=wrap;html=1;" vertex="1" parent="f8hrx9o9_4M5Lu1DDIx_-1">
          <mxGeometry x="580" y="80" width="110" height="30" as="geometry" />
        </mxCell>
        <mxCell id="nqUVrthM-jkGZHSEEBIY-3" value="" style="endArrow=none;dashed=1;html=1;dashPattern=1 3;strokeWidth=2;rounded=0;entryX=0.5;entryY=1;entryDx=0;entryDy=0;" edge="1" parent="f8hrx9o9_4M5Lu1DDIx_-1" target="nqUVrthM-jkGZHSEEBIY-0">
          <mxGeometry width="50" height="50" relative="1" as="geometry">
            <mxPoint x="155" y="500" as="sourcePoint" />
            <mxPoint x="230" y="210" as="targetPoint" />
          </mxGeometry>
        </mxCell>
        <mxCell id="nqUVrthM-jkGZHSEEBIY-4" value="" style="endArrow=none;dashed=1;html=1;dashPattern=1 3;strokeWidth=2;rounded=0;entryX=0.5;entryY=1;entryDx=0;entryDy=0;" edge="1" parent="f8hrx9o9_4M5Lu1DDIx_-1">
          <mxGeometry width="50" height="50" relative="1" as="geometry">
            <mxPoint x="394.5" y="500" as="sourcePoint" />
            <mxPoint x="394.5" y="110" as="targetPoint" />
          </mxGeometry>
        </mxCell>
        <mxCell id="nqUVrthM-jkGZHSEEBIY-5" value="" style="endArrow=none;dashed=1;html=1;dashPattern=1 3;strokeWidth=2;rounded=0;entryX=0.5;entryY=1;entryDx=0;entryDy=0;" edge="1" parent="f8hrx9o9_4M5Lu1DDIx_-1">
          <mxGeometry width="50" height="50" relative="1" as="geometry">
            <mxPoint x="640" y="500" as="sourcePoint" />
            <mxPoint x="640" y="110" as="targetPoint" />
          </mxGeometry>
        </mxCell>
        <mxCell id="nqUVrthM-jkGZHSEEBIY-6" value="" style="shape=flexArrow;endArrow=classic;html=1;rounded=0;" edge="1" parent="f8hrx9o9_4M5Lu1DDIx_-1">
          <mxGeometry width="50" height="50" relative="1" as="geometry">
            <mxPoint x="160" y="150" as="sourcePoint" />
            <mxPoint x="390" y="150" as="targetPoint" />
          </mxGeometry>
        </mxCell>
        <mxCell id="nqUVrthM-jkGZHSEEBIY-7" value="发起 HTTP 请求&lt;br&gt;" style="edgeLabel;html=1;align=center;verticalAlign=middle;resizable=0;points=[];" vertex="1" connectable="0" parent="nqUVrthM-jkGZHSEEBIY-6">
          <mxGeometry x="-0.16" y="-2" relative="1" as="geometry">
            <mxPoint x="13" y="-22" as="offset" />
          </mxGeometry>
        </mxCell>
        <mxCell id="nqUVrthM-jkGZHSEEBIY-8" value="" style="shape=flexArrow;endArrow=classic;html=1;rounded=0;" edge="1" parent="f8hrx9o9_4M5Lu1DDIx_-1">
          <mxGeometry width="50" height="50" relative="1" as="geometry">
            <mxPoint x="390" y="214" as="sourcePoint" />
            <mxPoint x="160" y="214" as="targetPoint" />
          </mxGeometry>
        </mxCell>
        <mxCell id="nqUVrthM-jkGZHSEEBIY-9" value="该请求的缓存结果失败，则只返回缓存标识" style="edgeLabel;html=1;align=center;verticalAlign=middle;resizable=0;points=[];" vertex="1" connectable="0" parent="nqUVrthM-jkGZHSEEBIY-8">
          <mxGeometry x="-0.16" y="-2" relative="1" as="geometry">
            <mxPoint x="-13" y="-22" as="offset" />
          </mxGeometry>
        </mxCell>
        <mxCell id="nqUVrthM-jkGZHSEEBIY-10" value="" style="shape=flexArrow;endArrow=classic;html=1;rounded=0;fillColor=default;" edge="1" parent="f8hrx9o9_4M5Lu1DDIx_-1">
          <mxGeometry width="50" height="50" relative="1" as="geometry">
            <mxPoint x="160" y="280" as="sourcePoint" />
            <mxPoint x="640" y="280" as="targetPoint" />
          </mxGeometry>
        </mxCell>
        <mxCell id="nqUVrthM-jkGZHSEEBIY-11" value="携带该资源的缓存标识，发起 HTTP 请求" style="edgeLabel;html=1;align=center;verticalAlign=middle;resizable=0;points=[];" vertex="1" connectable="0" parent="nqUVrthM-jkGZHSEEBIY-10">
          <mxGeometry x="-0.16" y="-2" relative="1" as="geometry">
            <mxPoint x="33" y="-22" as="offset" />
          </mxGeometry>
        </mxCell>
        <mxCell id="nqUVrthM-jkGZHSEEBIY-12" value="" style="shape=flexArrow;endArrow=classic;html=1;rounded=0;fillColor=default;" edge="1" parent="f8hrx9o9_4M5Lu1DDIx_-1">
          <mxGeometry width="50" height="50" relative="1" as="geometry">
            <mxPoint x="632.5" y="350" as="sourcePoint" />
            <mxPoint x="157.5" y="350" as="targetPoint" />
          </mxGeometry>
        </mxCell>
        <mxCell id="nqUVrthM-jkGZHSEEBIY-13" value="该资源更新了，重新返回请求结果，200" style="edgeLabel;html=1;align=center;verticalAlign=middle;resizable=0;points=[];" vertex="1" connectable="0" parent="nqUVrthM-jkGZHSEEBIY-12">
          <mxGeometry x="-0.16" y="-2" relative="1" as="geometry">
            <mxPoint x="-44" y="-18" as="offset" />
          </mxGeometry>
        </mxCell>
        <mxCell id="nqUVrthM-jkGZHSEEBIY-16" value="" style="shape=flexArrow;endArrow=classic;html=1;rounded=0;" edge="1" parent="f8hrx9o9_4M5Lu1DDIx_-1">
          <mxGeometry width="50" height="50" relative="1" as="geometry">
            <mxPoint x="160" y="420" as="sourcePoint" />
            <mxPoint x="390" y="420" as="targetPoint" />
          </mxGeometry>
        </mxCell>
        <mxCell id="nqUVrthM-jkGZHSEEBIY-17" value="将该请求结果和缓存标识存入浏览器缓存中" style="edgeLabel;html=1;align=center;verticalAlign=middle;resizable=0;points=[];" vertex="1" connectable="0" parent="nqUVrthM-jkGZHSEEBIY-16">
          <mxGeometry x="-0.16" y="-2" relative="1" as="geometry">
            <mxPoint x="13" y="-22" as="offset" />
          </mxGeometry>
        </mxCell>
      </root>
    </mxGraphModel>
  </diagram>
  <diagram id="G222s9gNoTs7bRbjkIXJ" name="Page-3">
    <mxGraphModel dx="946" dy="589" grid="1" gridSize="10" guides="1" tooltips="1" connect="1" arrows="1" fold="1" page="1" pageScale="1" pageWidth="827" pageHeight="1169" math="0" shadow="0">
      <root>
        <mxCell id="0TGgfbzttGYOGwzu3rh_-0" />
        <mxCell id="0TGgfbzttGYOGwzu3rh_-1" parent="0TGgfbzttGYOGwzu3rh_-0" />
        <mxCell id="0TGgfbzttGYOGwzu3rh_-14" style="rounded=0;orthogonalLoop=1;jettySize=auto;html=1;exitX=0.5;exitY=1;exitDx=0;exitDy=0;entryX=0.5;entryY=0;entryDx=0;entryDy=0;fontSize=14;" edge="1" parent="0TGgfbzttGYOGwzu3rh_-1" source="0TGgfbzttGYOGwzu3rh_-2" target="0TGgfbzttGYOGwzu3rh_-5">
          <mxGeometry relative="1" as="geometry" />
        </mxCell>
        <mxCell id="0TGgfbzttGYOGwzu3rh_-16" style="edgeStyle=none;rounded=0;orthogonalLoop=1;jettySize=auto;html=1;exitX=0.5;exitY=1;exitDx=0;exitDy=0;entryX=0.5;entryY=0;entryDx=0;entryDy=0;fontSize=14;fontColor=#FF0000;" edge="1" parent="0TGgfbzttGYOGwzu3rh_-1" source="0TGgfbzttGYOGwzu3rh_-2" target="0TGgfbzttGYOGwzu3rh_-4">
          <mxGeometry relative="1" as="geometry" />
        </mxCell>
        <mxCell id="0TGgfbzttGYOGwzu3rh_-2" value="可被复用" style="rounded=1;whiteSpace=wrap;html=1;fontSize=14;fillColor=#c9d6ff;" vertex="1" parent="0TGgfbzttGYOGwzu3rh_-1">
          <mxGeometry x="294" y="60" width="126" height="40" as="geometry" />
        </mxCell>
        <mxCell id="0TGgfbzttGYOGwzu3rh_-18" style="edgeStyle=none;rounded=0;orthogonalLoop=1;jettySize=auto;html=1;exitX=0.5;exitY=1;exitDx=0;exitDy=0;entryX=0.5;entryY=0;entryDx=0;entryDy=0;fontSize=14;fontColor=#00994D;" edge="1" parent="0TGgfbzttGYOGwzu3rh_-1" source="0TGgfbzttGYOGwzu3rh_-4" target="0TGgfbzttGYOGwzu3rh_-7">
          <mxGeometry relative="1" as="geometry" />
        </mxCell>
        <mxCell id="0TGgfbzttGYOGwzu3rh_-20" style="edgeStyle=none;rounded=0;orthogonalLoop=1;jettySize=auto;html=1;exitX=0.5;exitY=1;exitDx=0;exitDy=0;entryX=0.5;entryY=0;entryDx=0;entryDy=0;fontSize=14;fontColor=#00994D;" edge="1" parent="0TGgfbzttGYOGwzu3rh_-1" source="0TGgfbzttGYOGwzu3rh_-4" target="0TGgfbzttGYOGwzu3rh_-8">
          <mxGeometry relative="1" as="geometry" />
        </mxCell>
        <mxCell id="0TGgfbzttGYOGwzu3rh_-4" value="资源在使用时要求强一致？" style="rounded=1;whiteSpace=wrap;html=1;fontSize=14;fillColor=#c9d6ff;" vertex="1" parent="0TGgfbzttGYOGwzu3rh_-1">
          <mxGeometry x="400" y="140" width="200" height="40" as="geometry" />
        </mxCell>
        <mxCell id="0TGgfbzttGYOGwzu3rh_-5" value="no-store" style="rounded=1;whiteSpace=wrap;html=1;fontSize=14;fillColor=#ffe8c6;" vertex="1" parent="0TGgfbzttGYOGwzu3rh_-1">
          <mxGeometry x="170" y="140" width="126" height="40" as="geometry" />
        </mxCell>
        <mxCell id="0TGgfbzttGYOGwzu3rh_-23" style="edgeStyle=none;rounded=0;orthogonalLoop=1;jettySize=auto;html=1;exitX=0.5;exitY=1;exitDx=0;exitDy=0;entryX=0.5;entryY=0;entryDx=0;entryDy=0;fontSize=14;fontColor=#00994D;" edge="1" parent="0TGgfbzttGYOGwzu3rh_-1" source="0TGgfbzttGYOGwzu3rh_-7" target="0TGgfbzttGYOGwzu3rh_-9">
          <mxGeometry relative="1" as="geometry" />
        </mxCell>
        <mxCell id="0TGgfbzttGYOGwzu3rh_-25" style="edgeStyle=none;rounded=0;orthogonalLoop=1;jettySize=auto;html=1;exitX=0.5;exitY=1;exitDx=0;exitDy=0;entryX=0.5;entryY=0;entryDx=0;entryDy=0;fontSize=14;fontColor=#00994D;" edge="1" parent="0TGgfbzttGYOGwzu3rh_-1" source="0TGgfbzttGYOGwzu3rh_-7" target="0TGgfbzttGYOGwzu3rh_-10">
          <mxGeometry relative="1" as="geometry" />
        </mxCell>
        <mxCell id="0TGgfbzttGYOGwzu3rh_-7" value="允许 Web 代理缓存" style="rounded=1;whiteSpace=wrap;html=1;fontSize=14;fillColor=#c9d6ff;" vertex="1" parent="0TGgfbzttGYOGwzu3rh_-1">
          <mxGeometry x="270" y="230" width="200" height="40" as="geometry" />
        </mxCell>
        <mxCell id="0TGgfbzttGYOGwzu3rh_-22" style="edgeStyle=none;rounded=0;orthogonalLoop=1;jettySize=auto;html=1;exitX=0;exitY=0.5;exitDx=0;exitDy=0;entryX=1;entryY=0.5;entryDx=0;entryDy=0;fontSize=14;fontColor=#00994D;" edge="1" parent="0TGgfbzttGYOGwzu3rh_-1" source="0TGgfbzttGYOGwzu3rh_-8" target="0TGgfbzttGYOGwzu3rh_-7">
          <mxGeometry relative="1" as="geometry" />
        </mxCell>
        <mxCell id="0TGgfbzttGYOGwzu3rh_-8" value="no-cache" style="rounded=1;whiteSpace=wrap;html=1;fontSize=14;fillColor=#ffe8c6;" vertex="1" parent="0TGgfbzttGYOGwzu3rh_-1">
          <mxGeometry x="590" y="230" width="126" height="40" as="geometry" />
        </mxCell>
        <mxCell id="0TGgfbzttGYOGwzu3rh_-28" style="edgeStyle=none;rounded=0;orthogonalLoop=1;jettySize=auto;html=1;exitX=0.5;exitY=1;exitDx=0;exitDy=0;entryX=0.5;entryY=0;entryDx=0;entryDy=0;fontSize=14;fontColor=#00994D;" edge="1" parent="0TGgfbzttGYOGwzu3rh_-1" source="0TGgfbzttGYOGwzu3rh_-9" target="0TGgfbzttGYOGwzu3rh_-11">
          <mxGeometry relative="1" as="geometry" />
        </mxCell>
        <mxCell id="0TGgfbzttGYOGwzu3rh_-9" value="public" style="rounded=1;whiteSpace=wrap;html=1;fontSize=14;fillColor=#ffe8c6;" vertex="1" parent="0TGgfbzttGYOGwzu3rh_-1">
          <mxGeometry x="450" y="320" width="126" height="40" as="geometry" />
        </mxCell>
        <mxCell id="0TGgfbzttGYOGwzu3rh_-27" style="edgeStyle=none;rounded=0;orthogonalLoop=1;jettySize=auto;html=1;exitX=0.5;exitY=1;exitDx=0;exitDy=0;entryX=0.5;entryY=0;entryDx=0;entryDy=0;fontSize=14;fontColor=#00994D;" edge="1" parent="0TGgfbzttGYOGwzu3rh_-1" source="0TGgfbzttGYOGwzu3rh_-10" target="0TGgfbzttGYOGwzu3rh_-11">
          <mxGeometry relative="1" as="geometry" />
        </mxCell>
        <mxCell id="0TGgfbzttGYOGwzu3rh_-10" value="public" style="rounded=1;whiteSpace=wrap;html=1;fontSize=14;fillColor=#ffe8c6;" vertex="1" parent="0TGgfbzttGYOGwzu3rh_-1">
          <mxGeometry x="190" y="320" width="126" height="40" as="geometry" />
        </mxCell>
        <mxCell id="0TGgfbzttGYOGwzu3rh_-29" style="edgeStyle=none;rounded=0;orthogonalLoop=1;jettySize=auto;html=1;exitX=0.5;exitY=1;exitDx=0;exitDy=0;entryX=0.5;entryY=0;entryDx=0;entryDy=0;fontSize=14;fontColor=#00994D;" edge="1" parent="0TGgfbzttGYOGwzu3rh_-1" source="0TGgfbzttGYOGwzu3rh_-11" target="0TGgfbzttGYOGwzu3rh_-12">
          <mxGeometry relative="1" as="geometry" />
        </mxCell>
        <mxCell id="0TGgfbzttGYOGwzu3rh_-11" value="允许资源离线缓存 N 秒" style="rounded=1;whiteSpace=wrap;html=1;fontSize=14;fillColor=#c9d6ff;" vertex="1" parent="0TGgfbzttGYOGwzu3rh_-1">
          <mxGeometry x="270" y="410" width="200" height="40" as="geometry" />
        </mxCell>
        <mxCell id="0TGgfbzttGYOGwzu3rh_-12" value="max-age=N" style="rounded=1;whiteSpace=wrap;html=1;fontSize=14;fillColor=#ffe8c6;" vertex="1" parent="0TGgfbzttGYOGwzu3rh_-1">
          <mxGeometry x="307" y="480" width="126" height="40" as="geometry" />
        </mxCell>
        <mxCell id="0TGgfbzttGYOGwzu3rh_-15" value="No" style="text;html=1;align=center;verticalAlign=middle;resizable=0;points=[];autosize=1;strokeColor=none;fillColor=none;fontSize=14;fontColor=#FF0000;fontStyle=1" vertex="1" parent="0TGgfbzttGYOGwzu3rh_-1">
          <mxGeometry x="255" y="100" width="30" height="20" as="geometry" />
        </mxCell>
        <mxCell id="0TGgfbzttGYOGwzu3rh_-17" value="Yes" style="text;html=1;align=center;verticalAlign=middle;resizable=0;points=[];autosize=1;strokeColor=none;fillColor=none;fontSize=14;fontColor=#00994D;fontStyle=1" vertex="1" parent="0TGgfbzttGYOGwzu3rh_-1">
          <mxGeometry x="430" y="100" width="40" height="20" as="geometry" />
        </mxCell>
        <mxCell id="0TGgfbzttGYOGwzu3rh_-19" value="No" style="text;html=1;align=center;verticalAlign=middle;resizable=0;points=[];autosize=1;strokeColor=none;fillColor=none;fontSize=14;fontColor=#FF0000;fontStyle=1" vertex="1" parent="0TGgfbzttGYOGwzu3rh_-1">
          <mxGeometry x="403" y="190" width="30" height="20" as="geometry" />
        </mxCell>
        <mxCell id="0TGgfbzttGYOGwzu3rh_-21" value="Yes" style="text;html=1;align=center;verticalAlign=middle;resizable=0;points=[];autosize=1;strokeColor=none;fillColor=none;fontSize=14;fontColor=#00994D;fontStyle=1" vertex="1" parent="0TGgfbzttGYOGwzu3rh_-1">
          <mxGeometry x="570" y="190" width="40" height="20" as="geometry" />
        </mxCell>
        <mxCell id="0TGgfbzttGYOGwzu3rh_-24" value="Yes" style="text;html=1;align=center;verticalAlign=middle;resizable=0;points=[];autosize=1;strokeColor=none;fillColor=none;fontSize=14;fontColor=#00994D;fontStyle=1" vertex="1" parent="0TGgfbzttGYOGwzu3rh_-1">
          <mxGeometry x="430" y="280" width="40" height="20" as="geometry" />
        </mxCell>
        <mxCell id="0TGgfbzttGYOGwzu3rh_-26" value="&lt;font color=&quot;#ff0000&quot;&gt;&lt;b&gt;No&lt;/b&gt;&lt;/font&gt;" style="text;html=1;align=center;verticalAlign=middle;resizable=0;points=[];autosize=1;strokeColor=none;fillColor=none;fontSize=14;fontColor=#00994D;" vertex="1" parent="0TGgfbzttGYOGwzu3rh_-1">
          <mxGeometry x="285" y="280" width="30" height="20" as="geometry" />
        </mxCell>
      </root>
    </mxGraphModel>
  </diagram>
  <diagram id="t271k8WURKh987AFF6b4" name="Page-4">
    <mxGraphModel dx="1426" dy="769" grid="1" gridSize="10" guides="1" tooltips="1" connect="1" arrows="1" fold="1" page="1" pageScale="1" pageWidth="827" pageHeight="1169" math="0" shadow="0">
      <root>
        <mxCell id="8Wpp64pe3EcaWmBDzqVk-0" />
        <mxCell id="8Wpp64pe3EcaWmBDzqVk-1" parent="8Wpp64pe3EcaWmBDzqVk-0" />
        <mxCell id="8Wpp64pe3EcaWmBDzqVk-2" value="browser" style="rounded=1;whiteSpace=wrap;html=1;fontSize=14;" vertex="1" parent="8Wpp64pe3EcaWmBDzqVk-1">
          <mxGeometry x="170" y="115" width="130" height="50" as="geometry" />
        </mxCell>
        <mxCell id="8Wpp64pe3EcaWmBDzqVk-3" value="Server" style="rounded=1;whiteSpace=wrap;html=1;fontSize=14;" vertex="1" parent="8Wpp64pe3EcaWmBDzqVk-1">
          <mxGeometry x="510" y="115" width="130" height="50" as="geometry" />
        </mxCell>
        <mxCell id="8Wpp64pe3EcaWmBDzqVk-4" value="" style="endArrow=none;dashed=1;html=1;dashPattern=1 3;strokeWidth=2;rounded=0;fontSize=14;fontColor=#FF0000;entryX=0.5;entryY=1;entryDx=0;entryDy=0;" edge="1" parent="8Wpp64pe3EcaWmBDzqVk-1" target="8Wpp64pe3EcaWmBDzqVk-2">
          <mxGeometry width="50" height="50" relative="1" as="geometry">
            <mxPoint x="230" y="585" as="sourcePoint" />
            <mxPoint x="260" y="225" as="targetPoint" />
          </mxGeometry>
        </mxCell>
        <mxCell id="8Wpp64pe3EcaWmBDzqVk-6" value="" style="endArrow=none;dashed=1;html=1;dashPattern=1 3;strokeWidth=2;rounded=0;fontSize=14;fontColor=#FF0000;entryX=0.5;entryY=1;entryDx=0;entryDy=0;" edge="1" parent="8Wpp64pe3EcaWmBDzqVk-1">
          <mxGeometry width="50" height="50" relative="1" as="geometry">
            <mxPoint x="573" y="585" as="sourcePoint" />
            <mxPoint x="577.5" y="165" as="targetPoint" />
          </mxGeometry>
        </mxCell>
        <mxCell id="8Wpp64pe3EcaWmBDzqVk-7" value="" style="endArrow=classic;html=1;rounded=0;fontSize=14;fontColor=#FF0000;" edge="1" parent="8Wpp64pe3EcaWmBDzqVk-1">
          <mxGeometry width="50" height="50" relative="1" as="geometry">
            <mxPoint x="240" y="215" as="sourcePoint" />
            <mxPoint x="570" y="215" as="targetPoint" />
          </mxGeometry>
        </mxCell>
        <mxCell id="8Wpp64pe3EcaWmBDzqVk-8" value="GET&amp;nbsp; &amp;nbsp;/doge.png&amp;nbsp; HTTP/1.1" style="text;html=1;align=center;verticalAlign=middle;resizable=0;points=[];autosize=1;strokeColor=none;fillColor=none;fontSize=14;fontColor=#000000;" vertex="1" parent="8Wpp64pe3EcaWmBDzqVk-1">
          <mxGeometry x="310" y="185" width="190" height="20" as="geometry" />
        </mxCell>
        <mxCell id="8Wpp64pe3EcaWmBDzqVk-9" value="" style="endArrow=classic;html=1;rounded=0;fontSize=14;fontColor=#FF0000;" edge="1" parent="8Wpp64pe3EcaWmBDzqVk-1">
          <mxGeometry width="50" height="50" relative="1" as="geometry">
            <mxPoint x="230" y="435" as="sourcePoint" />
            <mxPoint x="570" y="435" as="targetPoint" />
          </mxGeometry>
        </mxCell>
        <mxCell id="8Wpp64pe3EcaWmBDzqVk-10" value="GET&amp;nbsp; &amp;nbsp;/doge.png&amp;nbsp; HTTP/1.1&lt;br&gt;If-Modified-Since;Fri,22 Jul 2016 01:47:00 GMT" style="text;html=1;align=center;verticalAlign=middle;resizable=0;points=[];autosize=1;strokeColor=none;fillColor=none;fontSize=14;fontColor=#000000;" vertex="1" parent="8Wpp64pe3EcaWmBDzqVk-1">
          <mxGeometry x="250" y="385" width="310" height="40" as="geometry" />
        </mxCell>
        <mxCell id="8Wpp64pe3EcaWmBDzqVk-11" value="" style="endArrow=classic;html=1;rounded=0;fontSize=14;fontColor=#FF0000;" edge="1" parent="8Wpp64pe3EcaWmBDzqVk-1">
          <mxGeometry width="50" height="50" relative="1" as="geometry">
            <mxPoint x="570" y="315" as="sourcePoint" />
            <mxPoint x="240" y="315" as="targetPoint" />
          </mxGeometry>
        </mxCell>
        <mxCell id="8Wpp64pe3EcaWmBDzqVk-12" value="HTTP/1.1&amp;nbsp; 200&amp;nbsp; OK&lt;br&gt;Last-Modified;Fri, 22 Jul 2016 01:47:00 GMT" style="text;html=1;align=center;verticalAlign=middle;resizable=0;points=[];autosize=1;strokeColor=none;fillColor=none;fontSize=14;fontColor=#000000;" vertex="1" parent="8Wpp64pe3EcaWmBDzqVk-1">
          <mxGeometry x="265" y="275" width="290" height="40" as="geometry" />
        </mxCell>
        <mxCell id="8Wpp64pe3EcaWmBDzqVk-13" value="" style="endArrow=classic;html=1;rounded=0;fontSize=14;fontColor=#FF0000;" edge="1" parent="8Wpp64pe3EcaWmBDzqVk-1">
          <mxGeometry width="50" height="50" relative="1" as="geometry">
            <mxPoint x="562" y="555" as="sourcePoint" />
            <mxPoint x="232" y="555" as="targetPoint" />
          </mxGeometry>
        </mxCell>
        <mxCell id="8Wpp64pe3EcaWmBDzqVk-14" value="HTTP/1.1 304 NOT MODIFIED" style="text;html=1;align=center;verticalAlign=middle;resizable=0;points=[];autosize=1;strokeColor=none;fillColor=none;fontSize=14;fontColor=#000000;" vertex="1" parent="8Wpp64pe3EcaWmBDzqVk-1">
          <mxGeometry x="290" y="525" width="210" height="20" as="geometry" />
        </mxCell>
      </root>
    </mxGraphModel>
  </diagram>
</mxfile>
